<svg width="121" height="42" viewBox="0 0 121 42" fill="none" xmlns="http://www.w3.org/2000/svg">
<path d="M118.966 18.1321C118.614 17.4762 118.112 16.9768 117.599 16.4732C115.949 14.8735 113.88 13.7393 111.768 13.2231C111.611 13.185 111.509 13.0284 111.525 12.8591C111.748 10.6712 111.505 8.4325 110.773 6.34192C110.522 6.46465 110.204 6.64662 109.824 6.909L109.797 6.93016C110.537 9.14769 110.69 11.5218 110.279 13.7774C110.244 13.9763 110.369 14.1668 110.557 14.1964C113.422 14.6365 116.137 16.2277 118.034 18.6526C116.384 20.1804 114.421 21.3145 112.317 21.8731C112.168 21.9112 112.066 22.0593 112.074 22.2286C112.203 24.9328 111.627 27.6497 110.447 30.0323C117.626 32.8042 123.046 24.9244 118.97 18.1363L118.966 18.1321Z" fill="#FFB71B"/>
<path d="M110.516 4.44559C108.019 5.61783 105.821 7.70841 104.457 10.2052C104.375 10.3534 104.207 10.4168 104.062 10.3449C102.243 9.45197 100.174 9.00338 98.1172 9.10071C98.1407 9.39695 98.1916 9.78629 98.2896 10.2645V10.2899C100.48 10.2137 102.612 10.7893 104.477 11.9107C104.642 12.0081 104.849 11.9403 104.932 11.7541C106.186 8.94837 108.447 6.65889 111.15 5.44432L111.303 5.84636C112.067 7.90308 112.369 10.1333 112.232 12.3212C112.22 12.4863 112.318 12.6344 112.467 12.6809C114.383 13.2395 116.162 14.2467 117.698 15.6264H117.702C118.09 15.9861 118.47 16.3585 118.827 16.7605C119.387 16.003 119.807 15.0424 120.042 14.1621C122.236 7.80998 116.17 1.83025 110.516 4.44136V4.44559Z" fill="#FFB71B"/>
<path d="M108.824 27.7804L108.844 27.7381C108.75 27.6703 108.659 27.6026 108.569 27.5307C106.876 26.1976 105.587 24.4795 104.725 22.4905C104.647 22.3085 104.439 22.2323 104.274 22.3296C101.723 23.7897 98.6474 24.2425 95.8064 23.4723C96.3119 21.1828 97.2759 19.0287 98.6748 17.2344C98.7728 17.1074 98.7767 16.9212 98.6787 16.7943C97.1074 14.6952 96.0964 12.1349 95.7554 9.43494V9.40955C95.0305 9.61268 94.2781 10.0062 93.6747 10.4421C86.7584 15.3596 90.7279 25.4697 98.6356 25.0339C100.458 25.0339 102.213 24.6318 103.82 23.887C103.969 23.8193 104.145 23.8785 104.224 24.0309C105.207 25.9056 106.633 27.5815 108.346 28.8087C108.487 28.5548 108.655 28.2163 108.828 27.7804H108.824Z" fill="#FFB71B"/>
<path d="M116.325 17.7218L116.306 17.7048C114.582 19.1522 112.54 20.0366 110.428 20.3202C110.24 20.3456 110.11 20.5318 110.146 20.7349C110.639 23.7988 110.106 27.1209 108.527 29.787L108.198 29.5585C106.45 28.3524 105.02 26.7824 103.943 24.9161C103.86 24.7764 103.7 24.7172 103.555 24.7764C101.227 25.7413 98.6406 25.9952 96.1798 25.5128C95.8153 33.1218 103.978 37.0533 108.782 31.264C110.875 28.8179 111.631 24.9457 111.372 21.6871C111.36 21.5178 111.474 21.3528 111.627 21.3147C113.59 20.8788 115.51 19.9224 117.125 18.5301C116.937 18.31 116.674 18.0349 116.325 17.7218Z" fill="#FFB71B"/>
<path d="M108.914 2.91005C108.914 2.91005 108.914 2.91004 108.91 2.90581C104.032 -2.87081 95.5008 1.68701 96.402 9.2876C96.402 9.2876 96.402 9.2876 96.402 9.29183C96.7273 12.0426 97.8676 14.7511 99.5408 16.7951C99.6466 16.9263 99.6427 17.121 99.5408 17.2479C98.2007 18.8434 97.1622 20.8324 96.6175 22.978C96.884 23.0457 97.2367 23.1134 97.6756 23.16H97.7148C98.3221 20.8959 99.4899 18.8772 101.053 17.3029C101.191 17.1633 101.191 16.9305 101.057 16.7909C100.877 16.6004 100.701 16.4058 100.532 16.1984C98.761 14.1247 97.6325 11.2978 97.4287 8.43275C99.5839 8.23808 101.818 8.57664 103.808 9.45265C103.953 9.51613 104.114 9.46112 104.2 9.32146C105.56 7.06583 107.496 5.23339 109.764 4.04421C109.525 3.6464 109.232 3.2613 108.918 2.91005H108.914Z" fill="#FFB71B"/>
<path d="M0.5 40.3759V9.92282C0.5 9.1907 1.04861 8.59399 1.73044 8.59399H14.1249C20.3438 8.59399 23.1926 12.2842 23.1926 16.5416C23.1926 20.4434 21.3783 23.3381 17.9456 24.2522C17.9025 24.2649 17.9025 24.3284 17.9456 24.3368C21.629 25.1663 24.1996 28.4376 24.1996 32.6695C24.1996 37.6336 20.8688 41.7047 14.6931 41.7047H1.73044C1.05253 41.7047 0.5 41.1123 0.5 40.3759ZM12.7221 22.5975C16.4879 22.5975 17.7614 20.3292 17.7614 17.68C17.7614 15.0308 16.4918 13.0926 12.679 13.0926H5.80186V22.5975H12.7221ZM13.1179 37.2104C17.3225 37.2104 18.9017 34.9421 18.9017 31.9586C18.9017 28.975 17.1932 26.5205 13.1179 26.5205H5.80186V37.2104H13.1179Z" fill="#006B68"/>
<path d="M26.1523 40.3759V8.59399H30.2238C30.9017 8.59399 31.4542 9.18647 31.4542 9.92282V41.7047H27.3828C26.7049 41.7047 26.1523 41.1123 26.1523 40.3759Z" fill="#006B68"/>
<path d="M34.4375 41.7003V9.91843C34.4375 9.1863 34.9861 8.5896 35.6679 8.5896H47.3179C55.4216 8.5896 60.4609 14.8317 60.4609 25.0011C60.4609 35.1704 55.6411 41.6961 47.5374 41.6961H34.4414L34.4375 41.7003ZM46.3971 37.206C52.0908 37.206 54.9396 33.0926 54.9396 25.0984C54.9396 17.1043 51.9615 13.0839 46.2678 13.0839H39.7433V37.206H46.401H46.3971Z" fill="#006B68"/>
<path d="M76.9507 41.7005H72.3072C70.2812 41.7005 69.4858 41.0023 68.8235 39.0175L59.1211 8.59399H63.5334C64.3054 8.61939 65.0068 9.13145 65.2811 9.95245L72.6559 33.7064C72.9185 34.6543 73.181 35.6912 73.4004 36.7788C73.5768 35.7377 73.8393 34.6966 74.145 33.7064L81.073 11.5183C81.751 9.51233 83.052 8.59399 84.6351 8.59399H89.9252C89.9957 8.59823 90.0623 8.64478 90.0819 8.72518C90.1916 9.16531 89.8977 9.44461 89.549 9.70276C89.0278 10.0879 88.6712 10.2614 88.1931 10.6507C86.9118 11.6875 86.1711 13.3676 85.6029 14.8954C85.3639 15.5429 85.1523 16.203 84.9368 16.8632L76.9507 41.7005Z" fill="#006B68"/>
</svg>
